<?xml version="1.0" encoding="UTF-8"?>
<!-- Created with Inkscape (http://www.inkscape.org/) -->
<svg width="210mm" height="297mm" version="1.1" viewBox="0 0 210 297" xmlns="http://www.w3.org/2000/svg" xmlns:xlink="http://www.w3.org/1999/xlink">
 <defs>
  <linearGradient id="linearGradient4514" x1="104.52" x2="104.52" y1="282.3" y2="29.301" gradientUnits="userSpaceOnUse">
   <stop stop-color="#8419c3" offset="0"/>
   <stop stop-color="#102cad" offset="1"/>
  </linearGradient>
 </defs>
 <path d="m47.649 173.47c-0.73767 2.2695 0 4.8305 0 7.2085 0 3.7985-0.29635 7.6618 1.3163 11.213 3.7981 8.3638 13.852 13.638 20.71 19.319 2.2635 1.8746 4.8465 3.8005 6.4428 6.311 2.0804 3.2723 1.2723 6.7904 1.6203 10.412 0.79854 8.311 0.34681 16.863 0.34681 25.23-12.343-3.5422-23.827-11.413-32.839-20.424-5.5317-5.5317-10.271-11.999-14.078-18.822-2.7596-4.947-4.7716-10.233-6.4816-15.618-10.621-33.451 6.1348-66.601 23.891-94.111 3.4084-5.2806 6.8785-10.494 10.52-15.618 4.9727-6.997 9.868-14.051 15.147-20.825 6.486-8.3226 12.934-16.666 19.623-24.829 2.1854-2.6668 4.3407-5.3611 6.5465-8.0094 1.4685-1.7628 3.2274-3.4743 4.1012-5.6066h0.80094c0.75609 1.8451 2.1722 3.2775 3.4412 4.8057l6.9414 8.4099c6.4352 7.7115 12.514 15.708 18.687 23.628 6.0756 7.796 11.791 15.888 17.391 24.028 16.935 24.619 34.812 51.803 36.814 82.497 0.54583 8.3739-0.85382 16.747-2.9274 24.829-1.5787 6.152-4.2362 12.109-7.3515 17.621-3.736 6.6106-8.4696 13.256-14.126 18.368-6.9318 6.2646-14.402 11.866-22.827 15.974-4.4056 2.1481-9.196 3.2863-13.616 5.3042 0-5.231-0.40007-10.608 1.4036-15.618 2.1325-5.925 7.2309-9.9705 11.387-14.417 3.5542-3.8021 7.152-7.5285 10.837-11.213 1.6123-1.6123 3.1617-3.6355 4.9706-5.0151 1.1438-0.87223 2.8958-0.8442 4.2402-1.2811 2.698-0.87743 5.1765-2.5766 6.7988-4.917 5.3984-7.7892 1.199-20.008-8.8012-21.169-4.1509-0.48216-8.496 0.64236-11.508 3.6543-4.5213 4.5213-5.5762 14.068-0.10568 18.316l-15.218 15.218c-5.2266 5.2266-10.662 10.843-13.019 18.021-1.4009 4.267-1.398 8.7839-1.398 13.216 0 4.6823-1.5558 13.062 3.2114 15.956 2.2198 1.3476 5.1833 0.9419 7.6014 0.46334 5.2346-1.036 10.29-2.7773 15.218-4.8076 21.772-8.9706 40.277-27.177 49.493-48.856 3.0039-7.0659 5.1585-14.454 6.4055-22.026 6.5585-39.814-16.315-76.389-37.872-107.73-6.1617-8.9569-12.416-17.888-19.147-26.431-9.0803-11.526-18.225-22.982-27.393-34.441-2.8021-3.502-6.8168-11.07-12.333-8.2616-1.7525 0.89205-2.9443 2.7808-4.1697 4.2569-2.205 2.6557-4.4 5.3213-6.5653 8.0094-7.5124 9.326-15.203 18.499-22.456 28.033-11.642 15.302-22.924 30.906-33.054 47.256-13.278 21.43-24.974 44.495-26.643 70.082-0.39127 6.0043 0.13815 12.073 0.82898 18.021 3.3143 28.542 22.227 53.066 46.403 67.439 5.9674 3.5478 12.572 6.3815 19.223 8.3674 2.6491 0.79093 6.1753 1.728 8.8104 0.48577 3.2578-1.5366 3.6042-4.6266 3.6042-7.8112v-30.436c0-5.9586 0.0409-11.838-3.7953-16.82-4.7248-6.1356-12.146-10.781-18.231-15.476-3.3115-2.555-7.2898-5.0728-8.4523-9.3534-0.72165-2.6567-0.35803-5.6803-0.35803-8.4099 0-1.0825-0.23628-2.5562 0.35602-3.5246 0.5935-0.96994 1.9231-1.2971 2.8477-1.8558 1.4701-0.88824 2.7653-2.0712 3.8137-3.43 5.0836-6.589 3.6899-16.766-3.0128-21.668-2.0784-1.5202-4.6222-2.563-7.2085-2.7368-5.8341-0.39167-11.186 1.3356-14.599 6.3835-5.3984 7.985-2.0024 20.596 7.7908 23.227m87.303-20.825c8.3118-1.2743 12.266-11.927 10.116-19.223-1.7621-5.9782-7.2425-10.294-13.319-11.109-10.172-1.3656-18.658 7.0491-17.997 17.117 0.27873 4.2482 2.4373 7.9766 5.5826 10.757 1.3428 1.1874 4.3443 2.0096 5.0151 3.6916 0.4169 1.0444 0.19103 2.4701 0.19103 3.5726v28.033c0 3.4897 0.52302 7.5689-1.0476 10.813-3.1553 6.5173-10.331 11.779-15.372 16.82 0-9.5 1.8073-21.003-2.9182-29.635-4.1621-7.6025-14.737-10.44-15.095-20.024-0.24908-6.6542-8e-3 -13.364-8e-3 -20.024 0-2.511-0.74526-6.4348 0.19103-8.7787 0.45374-1.1357 1.6087-1.3616 2.6123-1.8225 1.4457-0.66439 2.8181-1.6139 4.0047-2.67 4.8076-4.279 6.6462-11.031 4.798-17.165-4.305-14.288-24.892-17.179-32.119-3.6042-0.92308 1.7336-1.6532 3.6395-1.8598 5.6066-0.56146 5.3515 0.81376 10.962 4.7596 14.793 1.6343 1.5875 6.1841 3.0472 6.7131 5.2394 0.61312 2.539 0.0873 5.7912 0.0873 8.4007v15.218c0 3.7576-0.14498 7.5317 0.75288 11.213 0.85501 3.5065 2.6119 6.6742 5.2618 9.1572 3.7849 3.5466 9.4864 6.486 11.258 11.667 1.7705 5.1805 0.74888 11.816 0.74888 17.22v65.277c0 3.6419-0.54664 8.9614 4.0047 10.214 3.199 0.88024 6.6474-0.75048 7.1472-4.207 0.5022-3.4705 0.0613-7.3062 0.0613-10.813v-21.625c0-10.533 2.7717-20.31 9.717-28.433 4.8653-5.6911 11.873-10.172 14.945-17.22 2.4801-5.6887 1.7689-11.963 1.7689-18.021v-30.436m-50.459-41.44c8.6546-0.11011 9.1828 12.982 0.40047 13.138-8.303 0.14737-8.5821-13.034-0.40047-13.138m45.253 20.774c7.641-0.29475 7.8088 11.921 0 12.178-7.9538 0.2607-7.8124-11.876 0-12.178m-78.492 21.177c7.5309-1.2583 9.514 10.536 2.0024 11.788-7.2493 1.2082-9.4788-10.539-2.0024-11.788m104.92 36.45c6.1208-0.79134 7.0199 8.9649 0.80095 9.6966-5.9778 0.70363-6.7131-8.9321-0.80095-9.6966z" fill="url(#linearGradient4514)"/>
</svg>
